<svg xmlns="http://www.w3.org/2000/svg" xmlns:svg="http://www.w3.org/2000/svg" xmlns:xlink="http://www.w3.org/1999/xlink" version="1.0" height="919.9999999999985pt" width="1549.9999955473093pt" viewBox="155 -503.0000000000001 1557.9999955473093 925.9999999999985" ><defs><style type="text/css">
            @font-face {
                font-family: 'noto_regular';
                src: url('https://app.creately.com/diagram/assets/fonts/noto/noto-regular.woff') format('woff'),
                     url('https://app.creately.com/diagram/assets/fonts/noto/noto-regular.woff2') format('woff2');
                font-weight: normal;
                font-style: normal;
            }
        p {
            margin: 0;
        }
        </style></defs><defs><style>
            span{ display: inline-block; }
        </style></defs><g id="VJBzgL7xxTY"><g transform="translate(160 -500.0000000000001)"><rect x="0" y="0" width="1549.9999955473093" height="919.9999999999985" fill="rgb(248,250,252)"/></g><g transform="translate(268.4149977736546, -490.0000000000001) rotate(0, 666.585, 0)" width="1333.17" height="80"><text text-decoration="none" x="452.08500000000004" fill="#20293A" font-weight="bold" font-size="30pt" font-family="noto_regular"  y="43">AI&#160;</text><text text-decoration="none" x="503.08500000000004" fill="#20293A" font-weight="bold" font-size="30pt" font-family="noto_regular"  y="43">Flowchart&#160;</text><text text-decoration="none" x="712.085" fill="#20293A" font-weight="bold" font-size="30pt" font-family="noto_regular"  y="43">Example</text><text text-decoration="none" x="881.085" fill="#20293A" font-weight="bold" font-size="30pt" font-family="noto_regular"  y="43"></text><text text-decoration="none" x="19.085000000000036" fill="#20293A" font-size="14pt" font-family="noto_regular"  y="75">Our&#160;</text><text text-decoration="none" x="59.085000000000036" fill="#20293A" font-size="14pt" font-family="noto_regular"  y="75">intuitive&#160;</text><text text-decoration="none" x="138.08500000000004" fill="#20293A" font-size="14pt" font-family="noto_regular"  y="75">step-by-step&#160;</text><text text-decoration="none" x="255.08500000000004" fill="#20293A" font-size="14pt" font-family="noto_regular"  y="75">process&#160;</text><text text-decoration="none" x="329.08500000000004" fill="#20293A" font-size="14pt" font-family="noto_regular"  y="75">covers&#160;</text><text text-decoration="none" x="392.08500000000004" fill="#20293A" font-size="14pt" font-family="noto_regular"  y="75">everything&#160;</text><text text-decoration="none" x="493.08500000000004" fill="#20293A" font-size="14pt" font-family="noto_regular"  y="75">from&#160;</text><text text-decoration="none" x="541.085" fill="#20293A" font-size="14pt" font-family="noto_regular"  y="75">defining&#160;</text><text text-decoration="none" x="619.085" fill="#20293A" font-size="14pt" font-family="noto_regular"  y="75">the&#160;</text><text text-decoration="none" x="654.085" fill="#20293A" font-size="14pt" font-family="noto_regular"  y="75">problem&#160;</text><text text-decoration="none" x="736.085" fill="#20293A" font-size="14pt" font-family="noto_regular"  y="75">and&#160;</text><text text-decoration="none" x="776.085" fill="#20293A" font-size="14pt" font-family="noto_regular"  y="75">collecting&#160;</text><text text-decoration="none" x="865.085" fill="#20293A" font-size="14pt" font-family="noto_regular"  y="75">data&#160;</text><text text-decoration="none" x="911.085" fill="#20293A" font-size="14pt" font-family="noto_regular"  y="75">to&#160;</text><text text-decoration="none" x="934.085" fill="#20293A" font-size="14pt" font-family="noto_regular"  y="75">training,&#160;</text><text text-decoration="none" x="1014.085" fill="#20293A" font-size="14pt" font-family="noto_regular"  y="75">validating,&#160;</text><text text-decoration="none" x="1112.085" fill="#20293A" font-size="14pt" font-family="noto_regular"  y="75">and&#160;</text><text text-decoration="none" x="1152.085" fill="#20293A" font-size="14pt" font-family="noto_regular"  y="75">optimizing&#160;</text><text text-decoration="none" x="1251.085" fill="#20293A" font-size="14pt" font-family="noto_regular"  y="75">your&#160;</text><text text-decoration="none" x="1297.085" fill="#20293A" font-size="14pt" font-family="noto_regular"  y="75">AI&#160;</text><text text-decoration="none" x="635.585" fill="#20293A" font-size="14pt" font-family="noto_regular"  y="100">model.</text><text text-decoration="none" x="697.585" fill="#4b4b4b" font-size="10pt" font-family="noto_regular"  y="100"></text></g></g><g id="ECP75bHpYn2"><g transform="translate(340.0000000000001 -340)"><path d="M 20,40 L 20,40 L 20,40 A 20 20 0 0 1 0 20.000000000000004 L 0,20 L 0,20.000000000000004 A 20 20 0 0 1 20 0 L 80,0 L 80,0 L 80,0 A 20 20 0 0 1 100 20 L 100,20 L 100,20 A 20 20 0 0 1 80 40 L 20,40 Z" fill="rgb(182,241,250)" stroke="#418FAE" stroke-width="2" stroke-linecap="round" stroke-linejoin="round"/></g><g transform="translate(375.03500000000014, -329.2) rotate(0, 14.965, 9.2)" width="29.93" height="18.4"><text text-decoration="none" x="0.46499999999999986" fill="#2D5D73" font-size="10pt" font-family="noto_regular"  y="17">Start</text><text text-decoration="none" x="29.465" fill="#4b4b4b" font-size="10pt" font-family="noto_regular"  y="17"></text></g></g><g id="668PQhApFA7"><g transform="translate(540 -350)"><path d="M 0,60 L 20,0 L 120,0 L 100,60 L 0,60 Z" fill="rgb(244,209,231)" stroke="#C93B76" stroke-width="2" stroke-linecap="round" stroke-linejoin="round"/></g><g transform="translate(569.245, -338.4) rotate(0, 30.755, 18.4)" width="61.51" height="36.8"><text text-decoration="none" x="5.254999999999999" fill="#90264D" font-size="10pt" font-family="noto_regular"  y="14">Problem&#160;</text><text text-decoration="none" x="1.254999999999999" fill="#90264D" font-size="10pt" font-family="noto_regular"  y="36">Definition</text><text text-decoration="none" x="60.254999999999995" fill="#4b4b4b" font-size="10pt" font-family="noto_regular"  y="36"></text></g></g><g id="5of0pjiQXsi"><g><path d="M 440,-320 L 550,-320" fill="none" stroke="#7E7E7E" stroke-width="2" stroke-linecap="round" stroke-linejoin="round"/><path d="M 550,-320 L 541.304347826087,-325.75 L 541.304347826087,-314.25 Z" fill="rgb(126,126,126)" stroke="#7E7E7E" stroke-width="2" stroke-linecap="round" stroke-linejoin="round"/></g></g><g id="sbiQSbArRhd"><g transform="translate(760 -350)"><rect x="0" y="0" width="120" height="60" fill="rgb(199,245,211)" stroke="#4BA154" stroke-width="2" stroke-linecap="round" stroke-linejoin="round"/></g><g transform="translate(772.605, -329.2) rotate(0, 47.395, 9.2)" width="94.79" height="18.4"><text text-decoration="none" x="2.395000000000003" fill="#306339" font-size="10pt" font-family="noto_regular"  y="17">Data&#160;</text><text text-decoration="none" x="33.395" fill="#306339" font-size="10pt" font-family="noto_regular"  y="17">Collection</text><text text-decoration="none" x="92.39500000000001" fill="#4b4b4b" font-size="10pt" font-family="noto_regular"  y="17"></text></g></g><g id="rV2GW89VsCJ"><g><path d="M 650,-320 L 760,-320" fill="none" stroke="#7E7E7E" stroke-width="2" stroke-linecap="round" stroke-linejoin="round"/><path d="M 760,-320 L 751.304347826087,-325.75 L 751.304347826087,-314.25 Z" fill="rgb(126,126,126)" stroke="#7E7E7E" stroke-width="2" stroke-linecap="round" stroke-linejoin="round"/></g></g><g id="6nKd4Z5ZHfL"><g transform="translate(980.0000000000002 -350)"><path d="M 0,60 L 20,0 L 120,0 L 100,60 L 0,60 Z" fill="rgb(244,209,231)" stroke="#C93B76" stroke-width="2" stroke-linecap="round" stroke-linejoin="round"/></g><g transform="translate(1006.5100000000002, -329.2) rotate(0, 33.49, 9.2)" width="66.98" height="18.4"><text text-decoration="none" x="1.490000000000002" fill="#90264D" font-size="10pt" font-family="noto_regular"  y="17">Data&#160;</text><text text-decoration="none" x="32.49" fill="#90264D" font-size="10pt" font-family="noto_regular"  y="17">Input</text><text text-decoration="none" x="65.49000000000001" fill="#4b4b4b" font-size="10pt" font-family="noto_regular"  y="17"></text></g></g><g id="95TPHTxBhbt"><g><path d="M 880,-320 L 990,-320" fill="none" stroke="#7E7E7E" stroke-width="2" stroke-linecap="round" stroke-linejoin="round"/><path d="M 990,-320 L 981.304347826087,-325.75 L 981.304347826087,-314.25 Z" fill="rgb(126,126,126)" stroke="#7E7E7E" stroke-width="2" stroke-linecap="round" stroke-linejoin="round"/></g></g><g id="oyH4Gx3zV1g"><g transform="translate(1200.0000000000002 -350)"><rect x="0" y="0" width="120" height="60" fill="rgb(199,245,211)" stroke="#4BA154" stroke-width="2" stroke-linecap="round" stroke-linejoin="round"/></g><g transform="translate(1215.2900000000002, -338.4) rotate(0, 44.71, 18.4)" width="89.42" height="36.8"><text text-decoration="none" x="30.71" fill="#306339" font-size="10pt" font-family="noto_regular"  y="14">Data&#160;</text><text text-decoration="none" x="2.710000000000001" fill="#306339" font-size="10pt" font-family="noto_regular"  y="36">Preprocessing</text><text text-decoration="none" x="86.71000000000001" fill="#4b4b4b" font-size="10pt" font-family="noto_regular"  y="36"></text></g></g><g id="fcL3h25AqSk"><g><path d="M 1090,-320 L 1200,-320" fill="none" stroke="#7E7E7E" stroke-width="2" stroke-linecap="round" stroke-linejoin="round"/><path d="M 1200,-320 L 1191.304347826087,-325.75 L 1191.304347826087,-314.25 Z" fill="rgb(126,126,126)" stroke="#7E7E7E" stroke-width="2" stroke-linecap="round" stroke-linejoin="round"/></g></g><g id="VaK2SxjIEhw"><g transform="translate(1420.0000000000002 -350)"><path d="M 0,60 L 20,0 L 120,0 L 100,60 L 0,60 Z" fill="rgb(244,209,231)" stroke="#C93B76" stroke-width="2" stroke-linecap="round" stroke-linejoin="round"/></g><g transform="translate(1437.3650000000002, -338.4) rotate(0, 42.635, 18.4)" width="85.27" height="36.8"><text text-decoration="none" x="2.134999999999998" fill="#90264D" font-size="10pt" font-family="noto_regular"  y="14">Preprocessed&#160;</text><text text-decoration="none" x="28.634999999999998" fill="#90264D" font-size="10pt" font-family="noto_regular"  y="36">Data</text><text text-decoration="none" x="56.635" fill="#4b4b4b" font-size="10pt" font-family="noto_regular"  y="36"></text></g></g><g id="YomYfLe7L3D"><g><path d="M 1320,-320 L 1430,-320" fill="none" stroke="#7E7E7E" stroke-width="2" stroke-linecap="round" stroke-linejoin="round"/><path d="M 1430,-320 L 1421.304347826087,-325.75 L 1421.304347826087,-314.25 Z" fill="rgb(126,126,126)" stroke="#7E7E7E" stroke-width="2" stroke-linecap="round" stroke-linejoin="round"/></g></g><g id="MdIfPKYi7GO"><g transform="translate(1420.0000000000002 -190)"><rect x="0" y="0" width="120" height="60" fill="rgb(199,245,211)" stroke="#4BA154" stroke-width="2" stroke-linecap="round" stroke-linejoin="round"/></g><g transform="translate(1442.0200000000002, -178.4) rotate(0, 37.98, 18.4)" width="75.96" height="36.8"><text text-decoration="none" x="14.979999999999997" fill="#306339" font-size="10pt" font-family="noto_regular"  y="14">Feature&#160;</text><text text-decoration="none" x="2.979999999999997" fill="#306339" font-size="10pt" font-family="noto_regular"  y="36">Engineering</text><text text-decoration="none" x="72.97999999999999" fill="#4b4b4b" font-size="10pt" font-family="noto_regular"  y="36"></text></g></g><g id="5FjahKP9hkJ"><g><path d="M 1480,-290 L 1480,-190" fill="none" stroke="#7E7E7E" stroke-width="2" stroke-linecap="round" stroke-linejoin="round"/><path d="M 1480,-190 L 1485.75,-198.69565217391303 L 1474.25,-198.69565217391303 Z" fill="rgb(126,126,126)" stroke="#7E7E7E" stroke-width="2" stroke-linecap="round" stroke-linejoin="round"/></g></g><g id="3DzpLj6iwa4"><g transform="translate(1200.0000000000002 -190)"><path d="M 0,60 L 20,0 L 120,0 L 100,60 L 0,60 Z" fill="rgb(244,209,231)" stroke="#C93B76" stroke-width="2" stroke-linecap="round" stroke-linejoin="round"/></g><g transform="translate(1232.8100000000002, -169.2) rotate(0, 27.19, 9.2)" width="54.38" height="18.4"><text text-decoration="none" x="1.1900000000000013" fill="#90264D" font-size="10pt" font-family="noto_regular"  y="17">Features</text><text text-decoration="none" x="53.19" fill="#4b4b4b" font-size="10pt" font-family="noto_regular"  y="17"></text></g></g><g id="9BdVVcA0Dav"><g><path d="M 1420,-160 L 1310,-160" fill="none" stroke="#7E7E7E" stroke-width="2" stroke-linecap="round" stroke-linejoin="round"/><path d="M 1310,-160 L 1318.695652173913,-154.25 L 1318.695652173913,-165.75 Z" fill="rgb(126,126,126)" stroke="#7E7E7E" stroke-width="2" stroke-linecap="round" stroke-linejoin="round"/></g></g><g id="TgcDUQCKLBN"><g transform="translate(980.0000000000002 -190)"><rect x="0" y="0" width="120" height="60" fill="rgb(199,245,211)" stroke="#4BA154" stroke-width="2" stroke-linecap="round" stroke-linejoin="round"/></g><g transform="translate(990.2400000000002, -169.2) rotate(0, 49.76, 9.2)" width="99.52" height="18.4"><text text-decoration="none" x="2.259999999999998" fill="#306339" font-size="10pt" font-family="noto_regular"  y="17">Model&#160;</text><text text-decoration="none" x="43.26" fill="#306339" font-size="10pt" font-family="noto_regular"  y="17">Selection</text><text text-decoration="none" x="97.25999999999999" fill="#4b4b4b" font-size="10pt" font-family="noto_regular"  y="17"></text></g></g><g id="pneqre6UQiI"><g><path d="M 1210,-160 L 1100,-160" fill="none" stroke="#7E7E7E" stroke-width="2" stroke-linecap="round" stroke-linejoin="round"/><path d="M 1100,-160 L 1108.695652173913,-154.25 L 1108.695652173913,-165.75 Z" fill="rgb(126,126,126)" stroke="#7E7E7E" stroke-width="2" stroke-linecap="round" stroke-linejoin="round"/></g></g><g id="VBoX6Nx6Isj"><g transform="translate(760.0000000000002 -190)"><path d="M 0,60 L 20,0 L 120,0 L 100,60 L 0,60 Z" fill="rgb(244,209,231)" stroke="#C93B76" stroke-width="2" stroke-linecap="round" stroke-linejoin="round"/></g><g transform="translate(772.2550000000002, -169.2) rotate(0, 47.745, 9.2)" width="95.49" height="18.4"><text text-decoration="none" x="2.2449999999999974" fill="#90264D" font-size="10pt" font-family="noto_regular"  y="17">Selected&#160;</text><text text-decoration="none" x="55.245" fill="#90264D" font-size="10pt" font-family="noto_regular"  y="17">Model</text><text text-decoration="none" x="93.245" fill="#4b4b4b" font-size="10pt" font-family="noto_regular"  y="17"></text></g></g><g id="QHVTaH08zhZ"><g><path d="M 980,-160 L 870,-160" fill="none" stroke="#7E7E7E" stroke-width="2" stroke-linecap="round" stroke-linejoin="round"/><path d="M 870,-160 L 878.695652173913,-154.25 L 878.695652173913,-165.75 Z" fill="rgb(126,126,126)" stroke="#7E7E7E" stroke-width="2" stroke-linecap="round" stroke-linejoin="round"/></g></g><g id="MVbUwtfJuve"><g transform="translate(540.0000000000002 -190)"><rect x="0" y="0" width="120" height="60" fill="rgb(199,245,211)" stroke="#4BA154" stroke-width="2" stroke-linecap="round" stroke-linejoin="round"/></g><g transform="translate(552.6350000000002, -169.2) rotate(0, 47.365, 9.2)" width="94.73" height="18.4"><text text-decoration="none" x="2.865000000000002" fill="#306339" font-size="10pt" font-family="noto_regular"  y="17">Model&#160;</text><text text-decoration="none" x="43.865" fill="#306339" font-size="10pt" font-family="noto_regular"  y="17">Training</text><text text-decoration="none" x="91.86500000000001" fill="#4b4b4b" font-size="10pt" font-family="noto_regular"  y="17"></text></g></g><g id="7snJaAJr4gp"><g><path d="M 770,-160 L 660,-160" fill="none" stroke="#7E7E7E" stroke-width="2" stroke-linecap="round" stroke-linejoin="round"/><path d="M 660,-160 L 668.695652173913,-154.25 L 668.695652173913,-165.75 Z" fill="rgb(126,126,126)" stroke="#7E7E7E" stroke-width="2" stroke-linecap="round" stroke-linejoin="round"/></g></g><g id="ETnKkT2B5YK"><g transform="translate(339.99999999999994 -189.99999999999991)"><path d="M 0,60 L 20,0 L 120,0 L 100,60 L 0,60 Z" fill="rgb(244,209,231)" stroke="#C93B76" stroke-width="2" stroke-linecap="round" stroke-linejoin="round"/></g><g transform="translate(354.7149999999999, -169.1999999999999) rotate(0, 45.285, 9.2)" width="90.57" height="18.4"><text text-decoration="none" x="2.2849999999999966" fill="#90264D" font-size="10pt" font-family="noto_regular"  y="17">Trained&#160;</text><text text-decoration="none" x="50.285" fill="#90264D" font-size="10pt" font-family="noto_regular"  y="17">Model</text><text text-decoration="none" x="88.285" fill="#4b4b4b" font-size="10pt" font-family="noto_regular"  y="17"></text></g></g><g id="UGShM2EfCHj"><g><path d="M 540,-160 L 505.0000000000001,-160 Q 505,-160 495,-160 Q 485.0000000000002,-159.99999999999994 485.0000000000001,-159.99999999999994 L 450,-160" fill="none" stroke="#7E7E7E" stroke-width="2" stroke-linecap="round" stroke-linejoin="round"/><path d="M 450,-160 L 458.69565217391306,-154.25 L 458.69565217391306,-165.75 Z" fill="rgb(126,126,126)" stroke="#7E7E7E" stroke-width="2" stroke-linecap="round" stroke-linejoin="round"/></g></g><g id="T5Swo8CGIR6"><g transform="translate(340 -10)"><rect x="0" y="0" width="120" height="60" fill="rgb(199,245,211)" stroke="#4BA154" stroke-width="2" stroke-linecap="round" stroke-linejoin="round"/></g><g transform="translate(368.71, 1.6000000000000014) rotate(0, 31.29, 18.4)" width="62.58" height="36.8"><text text-decoration="none" x="12.29" fill="#306339" font-size="10pt" font-family="noto_regular"  y="14">Model&#160;</text><text text-decoration="none" x="1.2899999999999991" fill="#306339" font-size="10pt" font-family="noto_regular"  y="36">Validation</text><text text-decoration="none" x="61.29" fill="#4b4b4b" font-size="10pt" font-family="noto_regular"  y="36"></text></g></g><g id="zWOFtXwXamz"><g><path d="M 400,-130 L 399.99999999999994,-79.99999999999996 Q 399.99999999999994,-79.99999999999989 400,-70 Q 400,-60 400,-59.99999999999996 L 400,-10" fill="none" stroke="#7E7E7E" stroke-width="2" stroke-linecap="round" stroke-linejoin="round"/><path d="M 400,-10 L 405.75,-18.695652173913047 L 394.25,-18.695652173913047 Z" fill="rgb(126,126,126)" stroke="#7E7E7E" stroke-width="2" stroke-linecap="round" stroke-linejoin="round"/></g></g><g id="NqytF4Y4b0C"><g transform="translate(560 -10)"><path d="M 0,60 L 20,0 L 120,0 L 100,60 L 0,60 Z" fill="rgb(244,209,231)" stroke="#C93B76" stroke-width="2" stroke-linecap="round" stroke-linejoin="round"/></g><g transform="translate(588.71, 1.6000000000000014) rotate(0, 31.29, 18.4)" width="62.58" height="36.8"><text text-decoration="none" x="1.2899999999999991" fill="#90264D" font-size="10pt" font-family="noto_regular"  y="14">Validation&#160;</text><text text-decoration="none" x="9.29" fill="#90264D" font-size="10pt" font-family="noto_regular"  y="36">Metrics</text><text text-decoration="none" x="53.29" fill="#4b4b4b" font-size="10pt" font-family="noto_regular"  y="36"></text></g></g><g id="KcdMcqO3F4s"><g><path d="M 460,20 L 570,20" fill="none" stroke="#7E7E7E" stroke-width="2" stroke-linecap="round" stroke-linejoin="round"/><path d="M 570,20 L 561.304347826087,14.25 L 561.304347826087,25.75 Z" fill="rgb(126,126,126)" stroke="#7E7E7E" stroke-width="2" stroke-linecap="round" stroke-linejoin="round"/></g></g><g id="CydeOUA6QqG"><g transform="translate(780 -10)"><rect x="0" y="0" width="120" height="60" fill="rgb(199,245,211)" stroke="#4BA154" stroke-width="2" stroke-linecap="round" stroke-linejoin="round"/></g><g transform="translate(787.81, 1.6000000000000014) rotate(0, 52.19, 18.4)" width="104.38" height="36.8"><text text-decoration="none" x="2.1899999999999977" fill="#306339" font-size="10pt" font-family="noto_regular"  y="14">Hyperparameter&#160;</text><text text-decoration="none" x="31.689999999999998" fill="#306339" font-size="10pt" font-family="noto_regular"  y="36">Tuning</text><text text-decoration="none" x="72.69" fill="#4b4b4b" font-size="10pt" font-family="noto_regular"  y="36"></text></g></g><g id="4ZsS4KbMPjc"><g><path d="M 670,20 L 780,20" fill="none" stroke="#7E7E7E" stroke-width="2" stroke-linecap="round" stroke-linejoin="round"/><path d="M 780,20 L 771.304347826087,14.25 L 771.304347826087,25.75 Z" fill="rgb(126,126,126)" stroke="#7E7E7E" stroke-width="2" stroke-linecap="round" stroke-linejoin="round"/></g></g><g id="1rDyWeSNuiP"><g transform="translate(1000 -10)"><path d="M 0,60 L 20,0 L 120,0 L 100,60 L 0,60 Z" fill="rgb(244,209,231)" stroke="#C93B76" stroke-width="2" stroke-linecap="round" stroke-linejoin="round"/></g><g transform="translate(1027.63, 1.6000000000000014) rotate(0, 32.37, 18.4)" width="64.74" height="36.8"><text text-decoration="none" x="1.3699999999999974" fill="#90264D" font-size="10pt" font-family="noto_regular"  y="14">Optimized&#160;</text><text text-decoration="none" x="13.369999999999997" fill="#90264D" font-size="10pt" font-family="noto_regular"  y="36">Model</text><text text-decoration="none" x="51.37" fill="#4b4b4b" font-size="10pt" font-family="noto_regular"  y="36"></text></g></g><g id="R0ar97UmuJp"><g><path d="M 900,20 L 1010,20" fill="none" stroke="#7E7E7E" stroke-width="2" stroke-linecap="round" stroke-linejoin="round"/><path d="M 1010,20 L 1001.304347826087,14.25 L 1001.304347826087,25.75 Z" fill="rgb(126,126,126)" stroke="#7E7E7E" stroke-width="2" stroke-linecap="round" stroke-linejoin="round"/></g></g><g id="K19ZWvvWXfN"><g transform="translate(770.0000000000001 139.99999999999994)"><path d="M 60,0 L 0,40 L 60,80 L 120,40 L 60,0 Z" fill="rgb(249,231,150)" stroke="#CC7B2E" stroke-width="2" stroke-linecap="round" stroke-linejoin="round"/></g><g transform="translate(789.3300000000002, 161.59999999999994) rotate(0, 40.67, 18.4)" width="81.34" height="36.8"><text text-decoration="none" x="2.1700000000000017" fill="#88451D" font-size="10pt" font-family="noto_regular"  y="14">Performance&#160;</text><text text-decoration="none" x="5.170000000000002" fill="#88451D" font-size="10pt" font-family="noto_regular"  y="36">Acceptable?</text><text text-decoration="none" x="76.17" fill="#4b4b4b" font-size="10pt" font-family="noto_regular"  y="36"></text></g></g><g id="FukTOp5Ar28"><g><path d="M 1060,50 L 1060,84.99999999999997 Q 1060,94.99999999999997 1050,94.99999999999997 L 945,95 L 840.0000000000001,94.99999999999997 Q 830.0000000000001,94.99999999999997 830.0000000000001,104.99999999999997 L 830,140" fill="none" stroke="#7E7E7E" stroke-width="2" stroke-linecap="round" stroke-linejoin="round"/><path d="M 830,140 L 835.75,131.30434782608697 L 824.25,131.30434782608697 Z" fill="rgb(126,126,126)" stroke="#7E7E7E" stroke-width="2" stroke-linecap="round" stroke-linejoin="round"/></g></g><g id="zEKTTXhIXoo"><g transform="translate(559.9999999999998 150)"><rect x="0" y="0" width="120" height="60" fill="rgb(199,245,211)" stroke="#4BA154" stroke-width="2" stroke-linecap="round" stroke-linejoin="round"/></g><g transform="translate(581.6099999999998, 161.6) rotate(0, 38.39, 18.4)" width="76.78" height="36.8"><text text-decoration="none" x="19.39" fill="#306339" font-size="10pt" font-family="noto_regular"  y="14">Model&#160;</text><text text-decoration="none" x="1.3900000000000006" fill="#306339" font-size="10pt" font-family="noto_regular"  y="36">Deployment</text><text text-decoration="none" x="75.39" fill="#4b4b4b" font-size="10pt" font-family="noto_regular"  y="36"></text></g></g><g id="2ynLshZZsMz"><mask id="362eb" x="666" y="166" width="118" height="28" maskUnits="userSpaceOnUse"><rect x="666" y="166" width="118" height="28" fill="white" /><rect x="725.447591007641" y="167.99499999999998" width="27.46" height="24.01" fill="black" /></mask><g mask="url(#362eb)"><path d="M 770,180 L 735,179.99999999999994 Q 735,179.99999999999994 725,180 Q 715,180 715,180 L 680,180" fill="none" stroke="#7E7E7E" stroke-width="2" stroke-linecap="round" stroke-linejoin="round"/><path d="M 680,180 L 688.695652173913,185.75 L 688.695652173913,174.25 Z" fill="rgb(126,126,126)" stroke="#7E7E7E" stroke-width="2" stroke-linecap="round" stroke-linejoin="round"/></g><g transform="translate(728.447591007641, 170.99499999999998)" width="21.46" height="18.01"><text text-decoration="none" x="0.7300000000000004" fill="#000000" font-size="10pt" font-family="noto_regular"  y="17">Yes</text><text text-decoration="none" x="20.73" fill="#4b4b4b" font-size="10pt" font-family="noto_regular"  y="17"></text></g></g><g id="BfJLAOQYIaY"><g transform="translate(1000 150)"><rect x="0" y="0" width="120" height="60" fill="rgb(199,245,211)" stroke="#4BA154" stroke-width="2" stroke-linecap="round" stroke-linejoin="round"/></g><g transform="translate(1016.93, 170.8) rotate(0, 43.07, 9.2)" width="86.14" height="18.4"><text text-decoration="none" x="2.5700000000000003" fill="#306339" font-size="10pt" font-family="noto_regular"  y="17">Error&#160;</text><text text-decoration="none" x="35.57" fill="#306339" font-size="10pt" font-family="noto_regular"  y="17">Analysis</text><text text-decoration="none" x="83.57" fill="#4b4b4b" font-size="10pt" font-family="noto_regular"  y="17"></text></g></g><g id="3gSaevbGrMw"><mask id="f2626" x="876" y="166" width="138" height="28" maskUnits="userSpaceOnUse"><rect x="876" y="166" width="138" height="28" fill="white" /><rect x="932.9" y="167.99499999999998" width="24.2" height="24.01" fill="black" /></mask><g mask="url(#f2626)"><path d="M 890,180 L 935,179.99999999999994 Q 935,179.99999999999994 945,180 Q 955,180 955,180 L 1000,180" fill="none" stroke="#7E7E7E" stroke-width="2" stroke-linecap="round" stroke-linejoin="round"/><path d="M 1000,180 L 991.304347826087,174.25 L 991.304347826087,185.75 Z" fill="rgb(126,126,126)" stroke="#7E7E7E" stroke-width="2" stroke-linecap="round" stroke-linejoin="round"/></g><g transform="translate(935.9, 170.99499999999998)" width="18.2" height="18.01"><text text-decoration="none" x="0.09999999999999964" fill="#000000" font-size="10pt" font-family="noto_regular"  y="17">No</text><text text-decoration="none" x="18.1" fill="#4b4b4b" font-size="10pt" font-family="noto_regular"  y="17"></text></g></g><g id="LlLbdbdCIVH"><g transform="translate(1220.0000000000002 150)"><rect x="0" y="0" width="120" height="60" fill="rgb(199,245,211)" stroke="#4BA154" stroke-width="2" stroke-linecap="round" stroke-linejoin="round" stroke-dasharray="0 0"/></g><g transform="translate(1232.6050000000002, 170.8) rotate(0, 47.395, 9.2)" width="94.79" height="18.4"><text text-decoration="none" x="2.395000000000003" fill="#306339" font-size="10pt" font-family="noto_regular"  y="17">Data&#160;</text><text text-decoration="none" x="33.395" fill="#306339" font-size="10pt" font-family="noto_regular"  y="17">Collection</text><text text-decoration="none" x="92.39500000000001" fill="#4b4b4b" font-size="10pt" font-family="noto_regular"  y="17"></text></g></g><g id="iTdgbXEXTSr"><g><path d="M 1120,180 L 1220,180" fill="none" stroke="#7E7E7E" stroke-width="2" stroke-linecap="round" stroke-linejoin="round"/><path d="M 1220,180 L 1211.304347826087,174.25 L 1211.304347826087,185.75 Z" fill="rgb(126,126,126)" stroke="#7E7E7E" stroke-width="2" stroke-linecap="round" stroke-linejoin="round"/></g></g><g id="dTh0NJSPexv"><g transform="translate(1439.9999999999998 150)"><rect x="0" y="0" width="120" height="60" fill="rgb(199,245,211)" stroke="#4BA154" stroke-width="2" stroke-linecap="round" stroke-linejoin="round" stroke-dasharray="0 0"/></g><g transform="translate(1463.8549999999998, 161.6) rotate(0, 36.145, 18.4)" width="72.29" height="36.8"><text text-decoration="none" x="17.145000000000003" fill="#306339" font-size="10pt" font-family="noto_regular"  y="14">Model&#160;</text><text text-decoration="none" x="2.645000000000003" fill="#306339" font-size="10pt" font-family="noto_regular"  y="36">Re-Training</text><text text-decoration="none" x="69.64500000000001" fill="#4b4b4b" font-size="10pt" font-family="noto_regular"  y="36"></text></g></g><g id="dMKEHcSM8xK"><g><path d="M 1340,180 L 1440,180" fill="none" stroke="#7E7E7E" stroke-width="2" stroke-linecap="round" stroke-linejoin="round"/><path d="M 1440,180 L 1431.304347826087,174.25 L 1431.304347826087,185.75 Z" fill="rgb(126,126,126)" stroke="#7E7E7E" stroke-width="2" stroke-linecap="round" stroke-linejoin="round"/></g></g><g id="ZukGaK2BVnd"><g transform="translate(1439.9999999999998 -10)"><path d="M 60,0 L 0,40 L 60,80 L 120,40 L 60,0 Z" fill="rgb(249,231,150)" stroke="#CC7B2E" stroke-width="2" stroke-linecap="round" stroke-linejoin="round"/></g><g transform="translate(1465.9299999999998, 11.600000000000001) rotate(0, 34.07, 18.4)" width="68.14" height="36.8"><text text-decoration="none" x="15.07" fill="#88451D" font-size="10pt" font-family="noto_regular"  y="14">Model&#160;</text><text text-decoration="none" x="1.5700000000000003" fill="#88451D" font-size="10pt" font-family="noto_regular"  y="36">Improved?</text><text text-decoration="none" x="66.57" fill="#4b4b4b" font-size="10pt" font-family="noto_regular"  y="36"></text></g></g><g id="YRbZhGNrNvd"><g><path d="M 1500,150 L 1500,70" fill="none" stroke="#7E7E7E" stroke-width="2" stroke-linecap="round" stroke-linejoin="round"/><path d="M 1500,70 L 1494.25,78.69565217391305 L 1505.75,78.69565217391305 Z" fill="rgb(126,126,126)" stroke="#7E7E7E" stroke-width="2" stroke-linecap="round" stroke-linejoin="round"/></g></g><g id="JUOnZujiztZ"><mask id="cca3c" x="386" y="-44" width="1128" height="48" maskUnits="userSpaceOnUse"><rect x="386" y="-44" width="1128" height="48" fill="white" /><rect x="936.2699999999999" y="-42.005" width="27.46" height="24.01" fill="black" /></mask><g mask="url(#cca3c)"><path d="M 1500,-10 L 1500,-20 Q 1499.9999999999998,-30 1489.9999999999998,-30 L 950,-30 L 410,-30 Q 400,-30 400,-20 L 400,-10" fill="none" stroke="#7E7E7E" stroke-width="2" stroke-linecap="round" stroke-linejoin="round"/><path d="M 400,-10 L 405.75,-18.695652173913047 L 394.25,-18.695652173913047 Z" fill="rgb(126,126,126)" stroke="#7E7E7E" stroke-width="2" stroke-linecap="round" stroke-linejoin="round"/></g><g transform="translate(939.2699999999999, -39.005)" width="21.46" height="18.01"><text text-decoration="none" x="0.7300000000000004" fill="#000000" font-size="10pt" font-family="noto_regular"  y="17">Yes</text><text text-decoration="none" x="20.73" fill="#4b4b4b" font-size="10pt" font-family="noto_regular"  y="17"></text></g></g><g id="xEK5gWQBMuN"><g transform="translate(1440 320.0000000000001)"><path d="M 20,40 L 20,40 L 20,40 A 20 20 0 0 1 0 20.000000000000004 L 0,20 L 0,20.000000000000004 A 20 20 0 0 1 20 0 L 110.00000000000011,0 L 110.00000000000011,0 L 110.00000000000011,0 A 20 20 0 0 1 130.0000000000001 20 L 130.0000000000001,20 L 130.0000000000001,20 A 20 20 0 0 1 110.00000000000011 40 L 20,40 Z" fill="rgb(182,241,250)" stroke="#418FAE" stroke-width="2" stroke-linecap="round" stroke-linejoin="round"/></g><g transform="translate(1493.065, 330.8000000000001) rotate(0, 11.935, 9.2)" width="23.87" height="18.4"><text text-decoration="none" x="0.4350000000000005" fill="#2D5D73" font-size="10pt" font-family="noto_regular"  y="17">End</text><text text-decoration="none" x="23.435000000000002" fill="#4b4b4b" font-size="10pt" font-family="noto_regular"  y="17"></text></g></g><g id="BdLHAcyoHQ0"><g transform="translate(339.9999999999998 150)"><path d="M 0,60 L 20,0 L 120,0 L 100,60 L 0,60 Z" fill="rgb(244,209,231)" stroke="#C93B76" stroke-width="2" stroke-linecap="round" stroke-linejoin="round"/></g><g transform="translate(359.64499999999975, 161.6) rotate(0, 40.355, 18.4)" width="80.71" height="36.8"><text text-decoration="none" x="3.354999999999997" fill="#90264D" font-size="10pt" font-family="noto_regular"  y="14">Deployment&#160;</text><text text-decoration="none" x="1.3549999999999969" fill="#90264D" font-size="10pt" font-family="noto_regular"  y="36">Environment</text><text text-decoration="none" x="79.35499999999999" fill="#4b4b4b" font-size="10pt" font-family="noto_regular"  y="36"></text></g></g><g id="Ymkfunyfwrm"><g><path d="M 560,180 L 450,180" fill="none" stroke="#7E7E7E" stroke-width="2" stroke-linecap="round" stroke-linejoin="round"/><path d="M 450,180 L 458.69565217391306,185.75 L 458.69565217391306,174.25 Z" fill="rgb(126,126,126)" stroke="#7E7E7E" stroke-width="2" stroke-linecap="round" stroke-linejoin="round"/></g></g><g id="ZKHEhvki0oO"><g transform="translate(339.9999999999998 310)"><path d="M 0,60 L 20,0 L 120,0 L 100,60 L 0,60 Z" fill="rgb(244,209,231)" stroke="#C93B76" stroke-width="2" stroke-linecap="round" stroke-linejoin="round" stroke-dasharray="0 0"/></g><g transform="translate(370.26499999999976, 321.6) rotate(0, 29.735, 18.4)" width="59.47" height="36.8"><text text-decoration="none" x="1.2349999999999994" fill="#90264D" font-size="10pt" font-family="noto_regular"  y="14">Deployed&#160;</text><text text-decoration="none" x="10.735" fill="#90264D" font-size="10pt" font-family="noto_regular"  y="36">Model</text><text text-decoration="none" x="48.735" fill="#4b4b4b" font-size="10pt" font-family="noto_regular"  y="36"></text></g></g><g id="uqdlBh8Ixe6"><g><path d="M 400,210 L 400,310" fill="none" stroke="#7E7E7E" stroke-width="2" stroke-linecap="round" stroke-linejoin="round"/><path d="M 400,310 L 405.75,301.30434782608694 L 394.25,301.30434782608694 Z" fill="rgb(126,126,126)" stroke="#7E7E7E" stroke-width="2" stroke-linecap="round" stroke-linejoin="round"/></g></g><g id="t3zm2XgaBOM"><g transform="translate(559.9999999999998 310)"><path d="M 0,60 L 20,0 L 120,0 L 100,60 L 0,60 Z" fill="rgb(244,209,231)" stroke="#C93B76" stroke-width="2" stroke-linecap="round" stroke-linejoin="round"/></g><g transform="translate(574.0149999999998, 330.8) rotate(0, 45.985, 9.2)" width="91.97" height="18.4"><text text-decoration="none" x="2.4849999999999994" fill="#90264D" font-size="10pt" font-family="noto_regular"  y="17">User&#160;</text><text text-decoration="none" x="32.485" fill="#90264D" font-size="10pt" font-family="noto_regular"  y="17">Feedback</text><text text-decoration="none" x="89.485" fill="#4b4b4b" font-size="10pt" font-family="noto_regular"  y="17"></text></g></g><g id="7lZbn9ZIVDO"><g><path d="M 450,340 L 560,340" fill="none" stroke="#7E7E7E" stroke-width="2" stroke-linecap="round" stroke-linejoin="round"/><path d="M 560,340 L 551.304347826087,334.25 L 551.304347826087,345.75 Z" fill="rgb(126,126,126)" stroke="#7E7E7E" stroke-width="2" stroke-linecap="round" stroke-linejoin="round"/></g></g><g id="4PQUOCSfPef"><g transform="translate(779.9999999999999 299.9999999999999)"><path d="M 60,0 L 0,40 L 60,80 L 120,40 L 60,0 Z" fill="rgb(249,231,150)" stroke="#CC7B2E" stroke-width="2" stroke-linecap="round" stroke-linejoin="round"/></g><g transform="translate(810.3199999999999, 321.5999999999999) rotate(0, 29.68, 18.4)" width="59.36" height="36.8"><text text-decoration="none" x="1.1799999999999997" fill="#88451D" font-size="10pt" font-family="noto_regular"  y="14">Feedback&#160;</text><text text-decoration="none" x="3.1799999999999997" fill="#88451D" font-size="10pt" font-family="noto_regular"  y="36">Positive?</text><text text-decoration="none" x="56.18" fill="#4b4b4b" font-size="10pt" font-family="noto_regular"  y="36"></text></g></g><g id="45u7Q89QusV"><g><path d="M 680,340 L 719.9999999999998,340 Q 720,340 730,340 Q 739.9999999999995,339.9999999999999 739.9999999999998,339.9999999999999 L 780,340" fill="none" stroke="#7E7E7E" stroke-width="2" stroke-linecap="round" stroke-linejoin="round"/><path d="M 780,340 L 771.304347826087,334.25 L 771.304347826087,345.75 Z" fill="rgb(126,126,126)" stroke="#7E7E7E" stroke-width="2" stroke-linecap="round" stroke-linejoin="round"/></g></g><g id="mIEWSDwRsie"><mask id="7bc6c" x="826" y="196" width="248" height="118" maskUnits="userSpaceOnUse"><rect x="826" y="196" width="248" height="118" fill="white" />undefined<rect x="936.3069511426504" y="246.995" width="24.2" height="24.01" fill="black" /></mask><g mask="url(#7bc6c)"><path d="M 840,300 L 839.9999999999999,269 Q 839.9999999999999,259 849.9999999999999,259 L 950,259 L 1050,259 Q 1060,259 1060,249 L 1060,210" fill="none" stroke="#7E7E7E" stroke-width="2" stroke-linecap="round" stroke-linejoin="round"/><path d="M 1060,210 L 1054.25,218.69565217391303 L 1065.75,218.69565217391303 Z" fill="rgb(126,126,126)" stroke="#7E7E7E" stroke-width="2" stroke-linecap="round" stroke-linejoin="round"/></g>undefined<g transform="translate(939.3069511426504, 249.995)" width="18.2" height="18.01"><text text-decoration="none" x="0.09999999999999964" fill="#000000" font-size="10pt" font-family="noto_regular"  y="17">No</text><text text-decoration="none" x="18.1" fill="#4b4b4b" font-size="10pt" font-family="noto_regular"  y="17"></text></g></g><g id="DOLExPisRpe"><g transform="translate(999.9999999999999 310)"><rect x="0" y="0" width="120" height="60" fill="rgb(199,245,211)" stroke="#4BA154" stroke-width="2" stroke-linecap="round" stroke-linejoin="round"/></g><g transform="translate(1012.44, 330.8) rotate(0, 47.56, 9.2)" width="95.12" height="18.4"><text text-decoration="none" x="2.0600000000000023" fill="#306339" font-size="10pt" font-family="noto_regular"  y="17">Model&#160;</text><text text-decoration="none" x="43.06" fill="#306339" font-size="10pt" font-family="noto_regular"  y="17">Updates</text><text text-decoration="none" x="93.06" fill="#4b4b4b" font-size="10pt" font-family="noto_regular"  y="17"></text></g></g><g id="mQPyl3sFhAp"><mask id="45c9c" x="886" y="326" width="128" height="28" maskUnits="userSpaceOnUse"><rect x="886" y="326" width="128" height="28" fill="white" /><rect x="936.2699999999999" y="327.995" width="27.46" height="24.01" fill="black" /></mask><g mask="url(#45c9c)"><path d="M 900,340 L 939.9999999999999,339.9999999999999 Q 940,339.9999999999999 950,340 Q 959.9999999999998,340 959.9999999999999,340 L 1000,340" fill="none" stroke="#7E7E7E" stroke-width="2" stroke-linecap="round" stroke-linejoin="round"/><path d="M 1000,340 L 991.304347826087,334.25 L 991.304347826087,345.75 Z" fill="rgb(126,126,126)" stroke="#7E7E7E" stroke-width="2" stroke-linecap="round" stroke-linejoin="round"/></g><g transform="translate(939.2699999999999, 330.995)" width="21.46" height="18.01"><text text-decoration="none" x="0.7300000000000004" fill="#000000" font-size="10pt" font-family="noto_regular"  y="17">Yes</text><text text-decoration="none" x="20.73" fill="#4b4b4b" font-size="10pt" font-family="noto_regular"  y="17"></text></g></g><g id="iNpGW8nCsC4"><g transform="translate(1220 310)"><path d="M 0,60 L 20,0 L 120,0 L 100,60 L 0,60 Z" fill="rgb(244,209,231)" stroke="#C93B76" stroke-width="2" stroke-linecap="round" stroke-linejoin="round"/></g><g transform="translate(1249.38, 321.6) rotate(0, 30.62, 18.4)" width="61.24" height="36.8"><text text-decoration="none" x="1.120000000000001" fill="#90264D" font-size="10pt" font-family="noto_regular"  y="14">Improved&#160;</text><text text-decoration="none" x="11.620000000000001" fill="#90264D" font-size="10pt" font-family="noto_regular"  y="36">Model</text><text text-decoration="none" x="49.620000000000005" fill="#4b4b4b" font-size="10pt" font-family="noto_regular"  y="36"></text></g></g><g id="afdfy2yj9SM"><g><path d="M 1120,340 L 1230,340" fill="none" stroke="#7E7E7E" stroke-width="2" stroke-linecap="round" stroke-linejoin="round"/><path d="M 1230,340 L 1221.304347826087,334.25 L 1221.304347826087,345.75 Z" fill="rgb(126,126,126)" stroke="#7E7E7E" stroke-width="2" stroke-linecap="round" stroke-linejoin="round"/></g></g><g id="hwE7Jih24js"><g><path d="M 1330,340 L 1375,340 Q 1375,340 1385,340 Q 1395,340.0000000000001 1395,340.0000000000001 L 1440,340" fill="none" stroke="#7E7E7E" stroke-width="2" stroke-linecap="round" stroke-linejoin="round"/><path d="M 1440,340 L 1431.304347826087,334.25 L 1431.304347826087,345.75 Z" fill="rgb(126,126,126)" stroke="#7E7E7E" stroke-width="2" stroke-linecap="round" stroke-linejoin="round"/></g></g><g id="YIf0cCddC3u"><mask id="333c4" x="1046" y="16" width="408" height="148" maskUnits="userSpaceOnUse"><rect x="1046" y="16" width="408" height="148" fill="white" /><rect x="1293.40836007694" y="60.4660441862295" width="24.2" height="24.01" fill="black" /></mask><g mask="url(#333c4)"><path d="M 1440,30 L 1060,150" fill="none" stroke="#7E7E7E" stroke-width="2" stroke-linecap="round" stroke-linejoin="round"/><path d="M 1060,150 L 1070.0235285407177,152.86456669028567 L 1066.560517809441,141.89836604124307 Z" fill="rgb(126,126,126)" stroke="#7E7E7E" stroke-width="2" stroke-linecap="round" stroke-linejoin="round"/></g><g transform="translate(1296.40836007694, 63.4660441862295)" width="18.2" height="18.01"><text text-decoration="none" x="0.09999999999999964" fill="#000000" font-size="10pt" font-family="noto_regular"  y="17">No</text><text text-decoration="none" x="18.1" fill="#4b4b4b" font-size="10pt" font-family="noto_regular"  y="17"></text></g></g></svg>